<svg xmlns="http://www.w3.org/2000/svg" viewBox="0 0 2423 738" width="2423" height="738" fill="#231F20">
  <path d="M 195 738 C 155.67 738 121.33 728.33 92 709 C 62.67 689.67 40 663.83 24 631.5 C 8 599.17 0 564.33 0 527 C 0 492.33 6.33 462.33 19 437 C 31.67 411.67 48.67 390.83 70 374.5 C 91.33 358.17 114.5 346 139.5 338 C 164.5 330 189 326 213 326 C 253.67 326 288.5 336 317.5 356 C 346.5 376 368.67 401.67 384 433 C 399.33 464.33 407 497.33 407 532 C 407 574.67 397.33 611.33 378 642 C 358.67 672.67 333 696.33 301 713 C 269 729.67 233.67 738 195 738 Z M 224 719 C 259.33 719 287.33 706.5 308 681.5 C 328.67 656.5 339 616 339 560 C 339 518 332.17 480.83 318.5 448.5 C 304.83 416.17 286 390.83 262 372.5 C 238 354.17 210.67 345 180 345 C 144.67 345 117 358 97 384 C 77 410 67 447.33 67 496 C 67 536.67 73.67 574 87 608 C 100.33 642 118.83 669 142.5 689 C 166.17 709 193.33 719 224 719 Z M 688.16 737 C 642.83 737 605.83 727.17 577.16 707.5 C 548.5 687.83 527.33 662.83 513.66 632.5 C 500 602.17 493.16 571.33 493.16 540 C 493.16 506.67 499.66 477 512.66 451 C 525.66 425 542.83 403 564.16 385 C 585.5 367 609.16 353.33 635.16 344 C 661.16 334.67 686.5 330 711.16 330 C 730.5 330 749 332.5 766.66 337.5 C 784.33 342.5 799 349.67 810.66 359 C 822.33 368.33 828.16 379 828.16 391 C 828.16 399.67 825.16 407.17 819.16 413.5 C 813.16 419.83 804.5 423 793.16 423 C 782.5 423 773.66 419.67 766.66 413 C 759.66 406.33 753.83 398.67 749.16 390 C 741.83 378 733.16 368.33 723.16 361 C 713.16 353.67 698.16 350 678.16 350 C 640.16 350 610.83 364.83 590.16 394.5 C 569.5 424.17 559.16 462.67 559.16 510 C 559.16 544 565 575.67 576.66 605 C 588.33 634.33 606.5 657.83 631.16 675.5 C 655.83 693.17 687.83 702 727.16 702 C 745.16 702 762.83 699.67 780.16 695 C 797.5 690.33 813.83 681.67 829.16 669 C 830.5 667.67 832.33 668.33 834.66 671 C 837 673.67 837.5 675.67 836.16 677 C 812.83 697.67 789.5 712.83 766.16 722.5 C 742.83 732.17 716.83 737 688.16 737 Z M 1062.5 733 C 1029.84 733 1004 722.5 985 701.5 C 966 680.5 956.5 650 956.5 610 L 956.5 457 C 956.5 431 954.34 412.17 950 400.5 C 945.67 388.83 937.84 383 926.5 383 C 917.17 383 905.84 386.33 892.5 393 C 889.84 393.67 887.67 392 886 388 C 884.34 384 884.84 381.67 887.5 381 L 998.5 331 C 999.84 330.33 1001.17 330 1002.5 330 C 1004.5 330 1006.67 330.83 1009 332.5 C 1011.34 334.17 1012.5 336 1012.5 338 L 1012.5 577 C 1012.5 616.33 1019.5 645.5 1033.5 664.5 C 1047.5 683.5 1068.5 693 1096.5 693 C 1121.84 693 1147.34 685.33 1173 670 C 1198.67 654.67 1221.17 634 1240.5 608 L 1245.5 619 C 1214.84 658.33 1184.67 687.17 1155 705.5 C 1125.34 723.83 1094.5 733 1062.5 733 Z M 1277.5 338 L 1277.5 618 C 1277.5 640.67 1280.17 657 1285.5 667 C 1290.84 677 1299.84 682 1312.5 682 C 1319.17 682 1326.67 680.83 1335 678.5 C 1343.34 676.17 1353.5 672.67 1365.5 668 C 1368.84 666.67 1371.17 667.83 1372.5 671.5 C 1373.84 675.17 1373.17 677.67 1370.5 679 L 1253.5 734 C 1252.17 734.67 1250.84 735 1249.5 735 C 1244.17 735 1238.17 727.83 1231.5 713.5 C 1224.84 699.17 1221.5 678.67 1221.5 652 L 1221.5 457 C 1221.5 431 1219.34 412.17 1215 400.5 C 1210.67 388.83 1202.84 383 1191.5 383 C 1182.17 383 1170.84 386.33 1157.5 393 C 1154.84 393.67 1152.84 392 1151.5 388 C 1150.17 384 1150.84 381.67 1153.5 381 L 1264.5 331 C 1265.84 330.33 1266.84 330 1267.5 330 C 1269.5 330 1271.67 330.83 1274 332.5 C 1276.34 334.17 1277.5 336 1277.5 338 Z M 1428.32 725 C 1426.32 725 1425.32 723 1425.32 719 C 1425.32 715 1426.32 713 1428.32 713 C 1454.32 713 1471.32 708.5 1479.32 699.5 C 1487.32 690.5 1491.32 672 1491.32 644 L 1491.32 127 C 1491.32 103.67 1488.98 86.5 1484.32 75.5 C 1479.65 64.5 1471.32 59 1459.32 59 C 1449.32 59 1433.98 63.67 1413.32 73 C 1411.32 74.33 1409.32 73 1407.32 69 C 1405.32 65 1405.65 62.67 1408.32 62 L 1536.32 1 C 1537.65 0.33 1539.32 0 1541.32 0 C 1542.65 0 1544.48 0.83 1546.82 2.5 C 1549.15 4.17 1550.32 6 1550.32 8 L 1550.32 644 C 1550.32 672 1553.98 690.5 1561.32 699.5 C 1568.65 708.5 1585.65 713 1612.32 713 C 1614.32 713 1615.32 715 1615.32 719 C 1615.32 723 1614.32 725 1612.32 725 C 1600.98 725 1587.32 724.67 1571.32 724 C 1555.32 723.33 1538.32 723 1520.32 723 C 1502.98 723 1486.15 723.33 1469.82 724 C 1453.48 724.67 1439.65 725 1428.32 725 Z M 1967.94 731 C 1965.27 732.33 1962.61 733 1959.94 733 C 1951.27 733 1942.94 725.83 1934.94 711.5 C 1926.94 697.17 1922.94 676.33 1922.94 649 L 1922.94 460 C 1922.94 418.67 1917.11 389.67 1905.44 373 C 1893.77 356.33 1878.61 348 1859.94 348 C 1843.27 348 1829.61 352.17 1818.94 360.5 C 1808.27 368.83 1800.44 378.67 1795.44 390 C 1790.44 401.33 1786.94 412 1784.94 422 C 1782.94 431.33 1779.61 440.5 1774.94 449.5 C 1770.27 458.5 1760.94 463 1746.94 463 C 1735.61 463 1727.27 459.83 1721.94 453.5 C 1716.61 447.17 1713.94 440.33 1713.94 433 C 1713.94 420.33 1720.11 408 1732.44 396 C 1744.77 384 1760.44 372.83 1779.44 362.5 C 1798.44 352.17 1818.44 344 1839.44 338 C 1860.44 332 1879.27 329 1895.94 329 C 1923.27 329 1943.94 337.83 1957.94 355.5 C 1971.94 373.17 1978.94 398 1978.94 430 L 1978.94 617 C 1978.94 640.33 1981.94 657.33 1987.94 668 C 1993.94 678.67 2003.61 684 2016.94 684 C 2028.94 684 2045.61 679.67 2066.94 671 C 2070.27 669.67 2072.61 670.83 2073.94 674.5 C 2075.27 678.17 2074.27 680.67 2070.94 682 Z M 1787.94 732 C 1762.61 732 1743.27 725.17 1729.94 711.5 C 1716.61 697.83 1709.94 681.67 1709.94 663 C 1709.94 649.67 1713.44 637.5 1720.44 626.5 C 1727.44 615.5 1738.61 605.33 1753.94 596 C 1769.27 586.67 1788.94 577.67 1812.94 569 L 1932.94 524 L 1935.94 537 L 1829.94 578 C 1817.94 582.67 1807.94 588 1799.94 594 C 1791.94 600 1786.11 606.67 1782.44 614 C 1778.77 621.33 1776.94 629.33 1776.94 638 C 1776.94 653.33 1781.94 666.67 1791.94 678 C 1801.94 689.33 1815.61 695 1832.94 695 C 1839.61 695 1846.61 694 1853.94 692 C 1861.27 690 1870.27 685.67 1880.94 679 L 1943.94 641 L 1945.94 654 L 1871.94 702 C 1855.94 712.67 1841.44 720.33 1828.44 725 C 1815.44 729.67 1801.94 732 1787.94 732 Z M 2228.58 454 L 2224.58 443 C 2249.25 413 2269.58 389.83 2285.58 373.5 C 2301.58 357.17 2315.42 345.83 2327.08 339.5 C 2338.75 333.17 2349.92 330 2360.58 330 C 2374.58 330 2388.42 334 2402.08 342 C 2415.75 350 2422.58 359.67 2422.58 371 C 2422.58 379.67 2419.75 387 2414.08 393 C 2408.42 399 2400.25 402 2389.58 402 C 2380.92 402 2373.58 399.33 2367.58 394 C 2361.58 388.67 2355.25 383.67 2348.58 379 C 2341.92 374.33 2333.25 372 2322.58 372 C 2316.58 372 2310.25 373.67 2303.58 377 C 2296.92 380.33 2287.92 387.83 2276.58 399.5 C 2265.25 411.17 2249.25 429.33 2228.58 454 Z M 2130.58 725 C 2128.58 725 2127.58 723 2127.58 719 C 2127.58 715 2128.58 713 2130.58 713 C 2156.58 713 2173.42 708.5 2181.08 699.5 C 2188.75 690.5 2192.58 672 2192.58 644 L 2192.58 446 C 2192.58 424 2190.08 407.83 2185.08 397.5 C 2180.08 387.17 2170.92 382 2157.58 382 C 2150.92 382 2143.08 383.33 2134.08 386 C 2125.08 388.67 2114.92 392.33 2103.58 397 C 2100.92 397.67 2098.75 396.33 2097.08 393 C 2095.42 389.67 2095.92 387.33 2098.58 386 L 2214.58 331 C 2216.58 330.33 2218.58 330 2220.58 330 C 2225.25 330 2231.25 337 2238.58 351 C 2245.92 365 2249.58 385.33 2249.58 412 L 2249.58 644 C 2249.58 662.67 2251.92 677.17 2256.58 687.5 C 2261.25 697.83 2270.58 704.67 2284.58 708 C 2298.58 711.33 2319.25 713 2346.58 713 C 2349.25 713 2350.58 715 2350.58 719 C 2350.58 723 2349.25 725 2346.58 725 C 2330.58 725 2311.75 724.67 2290.08 724 C 2268.42 723.33 2245.58 723 2221.58 723 C 2204.25 723 2187.58 723.33 2171.58 724 C 2155.58 724.67 2141.92 725 2130.58 725 Z" />
</svg>